# xmcd
#
# Track frame offsets:
#	150
#	42517
#	66989
#	83145
#	100758
#	110889
#	155523
#	166408
#	196221
#	208630
#	216820
#	225771
#	236581
#	250095
#	262366
#
# Disc length: 3957 seconds
#
# Revision: 1
# Processed by: cddbd v1.5.2PL0 Copyright (c) Steve Scherf et al.
# Submitted via: audiograbber 1.83.01
#
DISCID=d30f730f
DTITLE=Various Artist - The Very Best Jazz Instrumentals - Disc 1
DYEAR=2015
DGENRE=Jazz
TTITLE0=Miles Davis - So What
TTITLE1=The Dave Brubeck Quartet - Take Five
TTITLE2=Glenn Miller - In The Mood
TTITLE3=King Curtis - Harlem Nocturne
TTITLE4=Lawrence Welk - Baby Elephant Walk
TTITLE5=Jimmy Smith - Midnight Special
TTITLE6=Pérez Prado - Guaglione
TTITLE7=Eddie Harris - Exodus (Main Theme)
TTITLE8=Quincy Jones - Tuxedo Junction
TTITLE9=Ramsey Lewis Trio - My Bucket's Got A Hole In It
TTITLE10=Earl Bostic - Unchained Melody
TTITLE11=Count Basie - Basie Twist
TTITLE12=Kenny Ball and His Jazzmen - Midnight In Moscow
TTITLE13=The George Shearing Quintet - Lullaby Of Birdland
TTITLE14=Dexter Gordon - Love For Sale
EXTD=
EXTT0=
EXTT1=
EXTT2=
EXTT3=
EXTT4=
EXTT5=
EXTT6=
EXTT7=
EXTT8=
EXTT9=
EXTT10=
EXTT11=
EXTT12=
EXTT13=
EXTT14=
PLAYORDER=
